<?xml version="1.0" encoding="utf-8" standalone="no"?>
<!DOCTYPE svg PUBLIC "-//W3C//DTD SVG 1.1//EN"
  "http://www.w3.org/Graphics/SVG/1.1/DTD/svg11.dtd">
<!-- Created with matplotlib (http://matplotlib.sourceforge.net/) -->
<svg height="432pt" version="1.1" viewBox="0 0 576 432" width="576pt" xmlns="http://www.w3.org/2000/svg" xmlns:xlink="http://www.w3.org/1999/xlink">
 <defs>
  <style type="text/css">
*{stroke-linecap:square;stroke-linejoin:round;}
  </style>
 </defs>
 <g id="figure_1">
  <g id="patch_1">
   <path d="
M0 432
L576 432
L576 0
L0 0
z
" style="fill:#ffffff;"/>
  </g>
  <g id="axes_1">
   <g id="patch_2">
    <path d="
M173.455 200.291
C194.285 200.291 214.265 192.015 228.995 177.285
C243.724 162.556 252 142.576 252 121.745
C252 100.915 243.724 80.9348 228.995 66.2054
C214.265 51.476 194.285 43.2 173.455 43.2
C152.624 43.2 132.644 51.476 117.915 66.2054
C103.185 80.9348 94.9091 100.915 94.9091 121.745
C94.9091 142.576 103.185 162.556 117.915 177.285
C132.644 192.015 152.624 200.291 173.455 200.291
z
" style="fill:#ffffff;"/>
   </g>
   <g id="line2d_1">
    <path clip-path="url(#pccad9f2334)" d="
M173.455 121.745
L186.594 136.338
L198.982 165.96
L179.523 140.421
L173.455 121.745" style="fill:none;stroke:#0000ff;stroke-width:2;"/>
   </g>
   <g id="line2d_2">
    <path clip-path="url(#pccad9f2334)" d="
M173.455 43.2" style="fill:none;stroke:#008000;"/>
   </g>
   <g id="matplotlib.axis_1">
    <g id="xtick_1">
     <g id="line2d_3">
      <path clip-path="url(#pccad9f2334)" d="
M173.455 121.745
L173.455 43.2" style="fill:none;stroke:#aaaaaa;"/>
     </g>
     <g id="text_1">
      <!-- 0° -->
      <defs>
       <path d="
M31.7812 66.4062
Q24.1719 66.4062 20.3281 58.9062
Q16.5 51.4219 16.5 36.375
Q16.5 21.3906 20.3281 13.8906
Q24.1719 6.39062 31.7812 6.39062
Q39.4531 6.39062 43.2812 13.8906
Q47.125 21.3906 47.125 36.375
Q47.125 51.4219 43.2812 58.9062
Q39.4531 66.4062 31.7812 66.4062
M31.7812 74.2188
Q44.0469 74.2188 50.5156 64.5156
Q56.9844 54.8281 56.9844 36.375
Q56.9844 17.9688 50.5156 8.26562
Q44.0469 -1.42188 31.7812 -1.42188
Q19.5312 -1.42188 13.0625 8.26562
Q6.59375 17.9688 6.59375 36.375
Q6.59375 54.8281 13.0625 64.5156
Q19.5312 74.2188 31.7812 74.2188" id="DejaVuSans-30"/>
       <path d="
M25 67.9219
Q21.0938 67.9219 18.4062 65.2031
Q15.7188 62.5 15.7188 58.5938
Q15.7188 54.7344 18.4062 52.0781
Q21.0938 49.4219 25 49.4219
Q28.9062 49.4219 31.5938 52.0781
Q34.2812 54.7344 34.2812 58.5938
Q34.2812 62.4531 31.5625 65.1875
Q28.8594 67.9219 25 67.9219
M25 74.2188
Q28.125 74.2188 31 73.0156
Q33.8906 71.8281 35.9844 69.5781
Q38.2344 67.3906 39.3594 64.5938
Q40.4844 61.8125 40.4844 58.5938
Q40.4844 52.1562 35.9688 47.6875
Q31.4531 43.2188 24.9062 43.2188
Q18.3125 43.2188 13.9062 47.6094
Q9.51562 52 9.51562 58.5938
Q9.51562 65.1406 14 69.6719
Q18.5 74.2188 25 74.2188" id="DejaVuSans-b0"/>
      </defs>
      <g transform="translate(167.603607955 39.7132670455)scale(0.12 -0.12)">
       <use xlink:href="#DejaVuSans-30"/>
       <use x="63.623046875" xlink:href="#DejaVuSans-b0"/>
      </g>
     </g>
    </g>
    <g id="xtick_2">
     <g id="line2d_4">
      <path clip-path="url(#pccad9f2334)" d="
M173.455 121.745
L228.995 66.2054" style="fill:none;stroke:#aaaaaa;"/>
     </g>
     <g id="text_2">
      <!-- 45° -->
      <defs>
       <path d="
M10.7969 72.9062
L49.5156 72.9062
L49.5156 64.5938
L19.8281 64.5938
L19.8281 46.7344
Q21.9688 47.4688 24.1094 47.8281
Q26.2656 48.1875 28.4219 48.1875
Q40.625 48.1875 47.75 41.5
Q54.8906 34.8125 54.8906 23.3906
Q54.8906 11.625 47.5625 5.09375
Q40.2344 -1.42188 26.9062 -1.42188
Q22.3125 -1.42188 17.5469 -0.640625
Q12.7969 0.140625 7.71875 1.70312
L7.71875 11.625
Q12.1094 9.23438 16.7969 8.0625
Q21.4844 6.89062 26.7031 6.89062
Q35.1562 6.89062 40.0781 11.3281
Q45.0156 15.7656 45.0156 23.3906
Q45.0156 31 40.0781 35.4375
Q35.1562 39.8906 26.7031 39.8906
Q22.75 39.8906 18.8125 39.0156
Q14.8906 38.1406 10.7969 36.2812
z
" id="DejaVuSans-35"/>
       <path d="
M37.7969 64.3125
L12.8906 25.3906
L37.7969 25.3906
z

M35.2031 72.9062
L47.6094 72.9062
L47.6094 25.3906
L58.0156 25.3906
L58.0156 17.1875
L47.6094 17.1875
L47.6094 0
L37.7969 0
L37.7969 17.1875
L4.89062 17.1875
L4.89062 26.7031
z
" id="DejaVuSans-34"/>
      </defs>
      <g transform="translate(224.777946349 65.0192411509)scale(0.12 -0.12)">
       <use xlink:href="#DejaVuSans-34"/>
       <use x="63.623046875" xlink:href="#DejaVuSans-35"/>
       <use x="127.24609375" xlink:href="#DejaVuSans-b0"/>
      </g>
     </g>
    </g>
    <g id="xtick_3">
     <g id="line2d_5">
      <path clip-path="url(#pccad9f2334)" d="
M173.455 121.745
L252 121.745" style="fill:none;stroke:#aaaaaa;"/>
     </g>
     <g id="text_3">
      <!-- 90° -->
      <defs>
       <path d="
M10.9844 1.51562
L10.9844 10.5
Q14.7031 8.73438 18.5 7.8125
Q22.3125 6.89062 25.9844 6.89062
Q35.75 6.89062 40.8906 13.4531
Q46.0469 20.0156 46.7812 33.4062
Q43.9531 29.2031 39.5938 26.9531
Q35.25 24.7031 29.9844 24.7031
Q19.0469 24.7031 12.6719 31.3125
Q6.29688 37.9375 6.29688 49.4219
Q6.29688 60.6406 12.9375 67.4219
Q19.5781 74.2188 30.6094 74.2188
Q43.2656 74.2188 49.9219 64.5156
Q56.5938 54.8281 56.5938 36.375
Q56.5938 19.1406 48.4062 8.85938
Q40.2344 -1.42188 26.4219 -1.42188
Q22.7031 -1.42188 18.8906 -0.6875
Q15.0938 0.046875 10.9844 1.51562
M30.6094 32.4219
Q37.25 32.4219 41.125 36.9531
Q45.0156 41.5 45.0156 49.4219
Q45.0156 57.2812 41.125 61.8438
Q37.25 66.4062 30.6094 66.4062
Q23.9688 66.4062 20.0938 61.8438
Q16.2188 57.2812 16.2188 49.4219
Q16.2188 41.5 20.0938 36.9531
Q23.9688 32.4219 30.6094 32.4219" id="DejaVuSans-39"/>
      </defs>
      <g transform="translate(250.168295455 126.113267045)scale(0.12 -0.12)">
       <use xlink:href="#DejaVuSans-39"/>
       <use x="63.623046875" xlink:href="#DejaVuSans-30"/>
       <use x="127.24609375" xlink:href="#DejaVuSans-b0"/>
      </g>
     </g>
    </g>
    <g id="xtick_4">
     <g id="line2d_6">
      <path clip-path="url(#pccad9f2334)" d="
M173.455 121.745
L228.995 177.285" style="fill:none;stroke:#aaaaaa;"/>
     </g>
     <g id="text_4">
      <!-- 135° -->
      <defs>
       <path d="
M12.4062 8.29688
L28.5156 8.29688
L28.5156 63.9219
L10.9844 60.4062
L10.9844 69.3906
L28.4219 72.9062
L38.2812 72.9062
L38.2812 8.29688
L54.3906 8.29688
L54.3906 0
L12.4062 0
z
" id="DejaVuSans-31"/>
       <path d="
M40.5781 39.3125
Q47.6562 37.7969 51.625 33
Q55.6094 28.2188 55.6094 21.1875
Q55.6094 10.4062 48.1875 4.48438
Q40.7656 -1.42188 27.0938 -1.42188
Q22.5156 -1.42188 17.6562 -0.515625
Q12.7969 0.390625 7.625 2.20312
L7.625 11.7188
Q11.7188 9.32812 16.5938 8.10938
Q21.4844 6.89062 26.8125 6.89062
Q36.0781 6.89062 40.9375 10.5469
Q45.7969 14.2031 45.7969 21.1875
Q45.7969 27.6406 41.2812 31.2656
Q36.7656 34.9062 28.7188 34.9062
L20.2188 34.9062
L20.2188 43.0156
L29.1094 43.0156
Q36.375 43.0156 40.2344 45.9219
Q44.0938 48.8281 44.0938 54.2969
Q44.0938 59.9062 40.1094 62.9062
Q36.1406 65.9219 28.7188 65.9219
Q24.6562 65.9219 20.0156 65.0312
Q15.375 64.1562 9.8125 62.3125
L9.8125 71.0938
Q15.4375 72.6562 20.3438 73.4375
Q25.25 74.2188 29.5938 74.2188
Q40.8281 74.2188 47.3594 69.1094
Q53.9062 64.0156 53.9062 55.3281
Q53.9062 49.2656 50.4375 45.0938
Q46.9688 40.9219 40.5781 39.3125" id="DejaVuSans-33"/>
      </defs>
      <g transform="translate(221.326071349 187.20729294)scale(0.12 -0.12)">
       <use xlink:href="#DejaVuSans-31"/>
       <use x="63.623046875" xlink:href="#DejaVuSans-33"/>
       <use x="127.24609375" xlink:href="#DejaVuSans-35"/>
       <use x="190.869140625" xlink:href="#DejaVuSans-b0"/>
      </g>
     </g>
    </g>
    <g id="xtick_5">
     <g id="line2d_7">
      <path clip-path="url(#pccad9f2334)" d="
M173.455 121.745
L173.455 200.291" style="fill:none;stroke:#aaaaaa;"/>
     </g>
     <g id="text_5">
      <!-- 180° -->
      <defs>
       <path d="
M31.7812 34.625
Q24.75 34.625 20.7188 30.8594
Q16.7031 27.0938 16.7031 20.5156
Q16.7031 13.9219 20.7188 10.1562
Q24.75 6.39062 31.7812 6.39062
Q38.8125 6.39062 42.8594 10.1719
Q46.9219 13.9688 46.9219 20.5156
Q46.9219 27.0938 42.8906 30.8594
Q38.875 34.625 31.7812 34.625
M21.9219 38.8125
Q15.5781 40.375 12.0312 44.7188
Q8.5 49.0781 8.5 55.3281
Q8.5 64.0625 14.7188 69.1406
Q20.9531 74.2188 31.7812 74.2188
Q42.6719 74.2188 48.875 69.1406
Q55.0781 64.0625 55.0781 55.3281
Q55.0781 49.0781 51.5312 44.7188
Q48 40.375 41.7031 38.8125
Q48.8281 37.1562 52.7969 32.3125
Q56.7812 27.4844 56.7812 20.5156
Q56.7812 9.90625 50.3125 4.23438
Q43.8438 -1.42188 31.7812 -1.42188
Q19.7344 -1.42188 13.25 4.23438
Q6.78125 9.90625 6.78125 20.5156
Q6.78125 27.4844 10.7812 32.3125
Q14.7969 37.1562 21.9219 38.8125
M18.3125 54.3906
Q18.3125 48.7344 21.8438 45.5625
Q25.3906 42.3906 31.7812 42.3906
Q38.1406 42.3906 41.7188 45.5625
Q45.3125 48.7344 45.3125 54.3906
Q45.3125 60.0625 41.7188 63.2344
Q38.1406 66.4062 31.7812 66.4062
Q25.3906 66.4062 21.8438 63.2344
Q18.3125 60.0625 18.3125 54.3906" id="DejaVuSans-38"/>
      </defs>
      <g transform="translate(160.232045455 212.513267045)scale(0.12 -0.12)">
       <use xlink:href="#DejaVuSans-31"/>
       <use x="63.623046875" xlink:href="#DejaVuSans-38"/>
       <use x="127.24609375" xlink:href="#DejaVuSans-30"/>
       <use x="190.869140625" xlink:href="#DejaVuSans-b0"/>
      </g>
     </g>
    </g>
    <g id="xtick_6">
     <g id="line2d_8">
      <path clip-path="url(#pccad9f2334)" d="
M173.455 121.745
L117.915 177.285" style="fill:none;stroke:#aaaaaa;"/>
     </g>
     <g id="text_6">
      <!-- 225° -->
      <defs>
       <path d="
M19.1875 8.29688
L53.6094 8.29688
L53.6094 0
L7.32812 0
L7.32812 8.29688
Q12.9375 14.1094 22.625 23.8906
Q32.3281 33.6875 34.8125 36.5312
Q39.5469 41.8438 41.4219 45.5312
Q43.3125 49.2188 43.3125 52.7812
Q43.3125 58.5938 39.2344 62.25
Q35.1562 65.9219 28.6094 65.9219
Q23.9688 65.9219 18.8125 64.3125
Q13.6719 62.7031 7.8125 59.4219
L7.8125 69.3906
Q13.7656 71.7812 18.9375 73
Q24.125 74.2188 28.4219 74.2188
Q39.75 74.2188 46.4844 68.5469
Q53.2188 62.8906 53.2188 53.4219
Q53.2188 48.9219 51.5312 44.8906
Q49.8594 40.875 45.4062 35.4062
Q44.1875 33.9844 37.6406 27.2188
Q31.1094 20.4531 19.1875 8.29688" id="DejaVuSans-32"/>
      </defs>
      <g transform="translate(98.91864456 187.20729294)scale(0.12 -0.12)">
       <use xlink:href="#DejaVuSans-32"/>
       <use x="63.623046875" xlink:href="#DejaVuSans-32"/>
       <use x="127.24609375" xlink:href="#DejaVuSans-35"/>
       <use x="190.869140625" xlink:href="#DejaVuSans-b0"/>
      </g>
     </g>
    </g>
    <g id="xtick_7">
     <g id="line2d_9">
      <path clip-path="url(#pccad9f2334)" d="
M173.455 121.745
L94.9091 121.745" style="fill:none;stroke:#aaaaaa;"/>
     </g>
     <g id="text_7">
      <!-- 270° -->
      <defs>
       <path d="
M8.20312 72.9062
L55.0781 72.9062
L55.0781 68.7031
L28.6094 0
L18.3125 0
L43.2188 64.5938
L8.20312 64.5938
z
" id="DejaVuSans-37"/>
      </defs>
      <g transform="translate(73.6126704545 126.113267045)scale(0.12 -0.12)">
       <use xlink:href="#DejaVuSans-32"/>
       <use x="63.623046875" xlink:href="#DejaVuSans-37"/>
       <use x="127.24609375" xlink:href="#DejaVuSans-30"/>
       <use x="190.869140625" xlink:href="#DejaVuSans-b0"/>
      </g>
     </g>
    </g>
    <g id="xtick_8">
     <g id="line2d_10">
      <path clip-path="url(#pccad9f2334)" d="
M173.455 121.745
L117.915 66.2054" style="fill:none;stroke:#aaaaaa;"/>
     </g>
     <g id="text_8">
      <!-- 315° -->
      <g transform="translate(98.93645706 65.0192411509)scale(0.12 -0.12)">
       <use xlink:href="#DejaVuSans-33"/>
       <use x="63.623046875" xlink:href="#DejaVuSans-31"/>
       <use x="127.24609375" xlink:href="#DejaVuSans-35"/>
       <use x="190.869140625" xlink:href="#DejaVuSans-b0"/>
      </g>
     </g>
    </g>
   </g>
   <g id="matplotlib.axis_2">
    <g id="ytick_1">
     <g id="line2d_11">
      <path clip-path="url(#pccad9f2334)" d="
M173.455 106.036
L175.097 106.122
L176.721 106.38
L178.309 106.805
L179.844 107.394
L181.309 108.141
L182.688 109.037
L183.966 110.071
L185.129 111.234
L186.163 112.512
L187.059 113.891
L187.806 115.356
L188.395 116.891
L188.82 118.479
L189.078 120.103
L189.164 121.745
L189.078 123.388
L188.82 125.012
L188.395 126.6
L187.806 128.135
L187.059 129.6
L186.163 130.979
L185.129 132.257
L183.966 133.42
L182.688 134.454
L181.309 135.35
L179.844 136.096
L178.309 136.686
L176.721 137.111
L175.097 137.368
L173.455 137.455
L171.812 137.368
L170.188 137.111
L168.6 136.686
L167.065 136.096
L165.6 135.35
L164.221 134.454
L162.943 133.42
L161.78 132.257
L160.746 130.979
L159.85 129.6
L159.104 128.135
L158.514 126.6
L158.089 125.012
L157.832 123.388
L157.745 121.745
L157.832 120.103
L158.089 118.479
L158.514 116.891
L159.104 115.356
L159.85 113.891
L160.746 112.512
L161.78 111.234
L162.943 110.071
L164.221 109.037
L165.6 108.141
L167.065 107.394
L168.6 106.805
L170.188 106.38
L171.812 106.122
L173.455 106.036
L173.455 106.036" style="fill:none;stroke:#aaaaaa;"/>
     </g>
    </g>
    <g id="ytick_2">
     <g id="line2d_12">
      <path clip-path="url(#pccad9f2334)" d="
M173.455 90.3273
L174.551 90.3464
L175.646 90.4038
L177.827 90.633
L179.987 91.0138
L182.115 91.5444
L184.2 92.222
L186.233 93.0435
L188.204 94.0048
L190.104 95.1013
L191.922 96.3276
L193.65 97.6777
L195.279 99.1451
L196.803 100.723
L198.212 102.402
L199.501 104.177
L200.663 106.036
L201.693 107.973
L202.585 109.976
L203.335 112.037
L203.939 114.145
L204.395 116.29
L204.701 118.461
L204.854 120.649
L204.854 122.842
L204.701 125.03
L204.395 127.201
L203.939 129.346
L203.335 131.454
L202.585 133.515
L201.693 135.518
L200.663 137.455
L199.501 139.314
L198.212 141.088
L196.803 142.768
L195.279 144.346
L193.65 145.813
L191.922 147.163
L190.104 148.39
L188.204 149.486
L186.233 150.447
L184.2 151.269
L182.115 151.947
L179.987 152.477
L177.827 152.858
L175.646 153.087
L173.455 153.164
L171.263 153.087
L169.082 152.858
L166.922 152.477
L164.795 151.947
L162.709 151.269
L160.676 150.447
L158.705 149.486
L156.805 148.39
L154.987 147.163
L153.259 145.813
L151.63 144.346
L150.106 142.768
L148.697 141.088
L147.408 139.314
L146.246 137.455
L145.216 135.518
L144.324 133.515
L143.574 131.454
L142.97 129.346
L142.514 127.201
L142.208 125.03
L142.056 122.842
L142.056 120.649
L142.208 118.461
L142.514 116.29
L142.97 114.145
L143.574 112.037
L144.324 109.976
L145.216 107.973
L146.246 106.036
L147.408 104.177
L148.697 102.402
L150.106 100.723
L151.63 99.1451
L153.259 97.6777
L154.987 96.3276
L156.805 95.1013
L158.705 94.0048
L160.676 93.0435
L162.709 92.222
L164.795 91.5444
L166.922 91.0138
L169.082 90.633
L171.263 90.4038
L173.455 90.3273
L173.455 90.3273" style="fill:none;stroke:#aaaaaa;"/>
     </g>
    </g>
    <g id="ytick_3">
     <g id="line2d_13">
      <path clip-path="url(#pccad9f2334)" d="
M173.455 74.6182
L175.099 74.6469
L176.742 74.733
L180.013 75.0768
L183.253 75.648
L186.445 76.4438
L189.573 77.4603
L192.623 78.6925
L195.579 80.1345
L198.428 81.7793
L201.155 83.6187
L203.747 85.6439
L206.192 87.8449
L208.477 90.2112
L210.591 92.731
L212.525 95.3922
L214.268 98.1818
L215.812 101.086
L217.15 104.091
L218.275 107.182
L219.182 110.344
L219.866 113.562
L220.324 116.819
L220.553 120.101
L220.553 123.39
L220.324 126.672
L219.866 129.929
L219.182 133.147
L218.275 136.309
L217.15 139.4
L215.812 142.405
L214.268 145.309
L212.525 148.099
L210.591 150.76
L208.477 153.28
L206.192 155.646
L203.747 157.847
L201.155 159.872
L198.428 161.712
L195.579 163.356
L192.623 164.798
L189.573 166.031
L186.445 167.047
L183.253 167.843
L180.013 168.414
L176.742 168.758
L173.455 168.873
L170.167 168.758
L166.896 168.414
L163.656 167.843
L160.465 167.047
L157.336 166.031
L154.286 164.798
L151.33 163.356
L148.481 161.712
L145.754 159.872
L143.162 157.847
L140.717 155.646
L138.432 153.28
L136.318 150.76
L134.384 148.099
L132.641 145.309
L131.097 142.405
L129.759 139.4
L128.634 136.309
L127.727 133.147
L127.043 129.929
L126.585 126.672
L126.356 123.39
L126.356 120.101
L126.585 116.819
L127.043 113.562
L127.727 110.344
L128.634 107.182
L129.759 104.091
L131.097 101.086
L132.641 98.1818
L134.384 95.3922
L136.318 92.731
L138.432 90.2112
L140.717 87.8449
L143.162 85.6439
L145.754 83.6187
L148.481 81.7793
L151.33 80.1345
L154.286 78.6925
L157.336 77.4603
L160.465 76.4438
L163.656 75.648
L166.896 75.0768
L170.167 74.733
L173.455 74.6182
L173.455 74.6182" style="fill:none;stroke:#aaaaaa;"/>
     </g>
    </g>
    <g id="ytick_4">
     <g id="line2d_14">
      <path clip-path="url(#pccad9f2334)" d="
M173.455 58.9091
L175.648 58.9474
L177.838 59.0622
L182.2 59.5206
L186.519 60.2822
L190.775 61.3433
L194.946 62.6986
L199.012 64.3416
L202.954 66.2642
L206.753 68.4572
L210.389 70.9098
L213.845 73.61
L217.104 76.5448
L220.151 79.6997
L222.97 83.0595
L225.548 86.6078
L227.872 90.3273
L229.931 94.1998
L231.715 98.2065
L233.215 102.328
L234.424 106.544
L235.336 110.834
L235.947 115.177
L236.253 119.552
L236.253 123.938
L235.947 128.314
L235.336 132.657
L234.424 136.947
L233.215 141.163
L231.715 145.284
L229.931 149.291
L227.872 153.164
L225.548 156.883
L222.97 160.431
L220.151 163.791
L217.104 166.946
L213.845 169.881
L210.389 172.581
L206.753 175.034
L202.954 177.227
L199.012 179.149
L194.946 180.792
L190.775 182.148
L186.519 183.209
L182.2 183.97
L177.838 184.429
L173.455 184.582
L169.071 184.429
L164.709 183.97
L160.39 183.209
L156.134 182.148
L151.963 180.792
L147.897 179.149
L143.955 177.227
L140.156 175.034
L136.52 172.581
L133.064 169.881
L129.805 166.946
L126.758 163.791
L123.939 160.431
L121.361 156.883
L119.037 153.164
L116.978 149.291
L115.194 145.284
L113.694 141.163
L112.485 136.947
L111.573 132.657
L110.962 128.314
L110.656 123.938
L110.656 119.552
L110.962 115.177
L111.573 110.834
L112.485 106.544
L113.694 102.328
L115.194 98.2065
L116.978 94.1998
L119.037 90.3273
L121.361 86.6078
L123.939 83.0595
L126.758 79.6997
L129.805 76.5448
L133.064 73.61
L136.52 70.9098
L140.156 68.4572
L143.955 66.2642
L147.897 64.3416
L151.963 62.6986
L156.134 61.3433
L160.39 60.2822
L164.709 59.5206
L169.071 59.0622
L173.455 58.9091
L173.455 58.9091" style="fill:none;stroke:#aaaaaa;"/>
     </g>
    </g>
    <g id="ytick_5">
     <g id="line2d_15">
      <path clip-path="url(#pccad9f2334)" d="
M173.455 43.2
L176.196 43.2478
L178.934 43.3913
L184.386 43.9644
L189.785 44.9164
L195.105 46.2427
L200.319 47.9369
L205.402 49.9906
L210.329 52.3939
L215.077 55.1351
L219.622 58.2008
L223.943 61.5761
L228.017 65.2446
L231.825 69.1883
L235.349 73.388
L238.572 77.8234
L241.477 82.4727
L244.051 87.3134
L246.281 92.3218
L248.156 97.4736
L249.667 102.744
L250.807 108.106
L251.57 113.535
L251.952 119.004
L251.952 124.487
L251.57 129.956
L250.807 135.385
L249.667 140.747
L248.156 146.017
L246.281 151.169
L244.051 156.178
L241.477 161.018
L238.572 165.668
L235.349 170.103
L231.825 174.303
L228.017 178.246
L223.943 181.915
L219.622 185.29
L215.077 188.356
L210.329 191.097
L205.402 193.5
L200.319 195.554
L195.105 197.248
L189.785 198.575
L184.386 199.527
L178.934 200.1
L173.455 200.291
L167.975 200.1
L162.523 199.527
L157.124 198.575
L151.804 197.248
L146.59 195.554
L141.507 193.5
L136.58 191.097
L131.832 188.356
L127.287 185.29
L122.967 181.915
L118.892 178.246
L115.084 174.303
L111.56 170.103
L108.337 165.668
L105.432 161.018
L102.858 156.178
L100.628 151.169
L98.7534 146.017
L97.2422 140.747
L96.1024 135.385
L95.3394 129.956
L94.9569 124.487
L94.9569 119.004
L95.3394 113.535
L96.1024 108.106
L97.2422 102.744
L98.7534 97.4736
L100.628 92.3218
L102.858 87.3134
L105.432 82.4727
L108.337 77.8234
L111.56 73.388
L115.084 69.1883
L118.892 65.2446
L122.967 61.5761
L127.287 58.2008
L131.832 55.1351
L136.58 52.3939
L141.507 49.9906
L146.59 47.9369
L151.804 46.2427
L157.124 44.9164
L162.523 43.9644
L167.975 43.3913
L173.455 43.2
L173.455 43.2" style="fill:none;stroke:#aaaaaa;"/>
     </g>
    </g>
   </g>
   <g id="patch_3">
    <path d="
M173.455 200.291
C194.285 200.291 214.265 192.015 228.995 177.285
C243.724 162.556 252 142.576 252 121.745
C252 100.915 243.724 80.9348 228.995 66.2054
C214.265 51.476 194.285 43.2 173.455 43.2
C152.624 43.2 132.644 51.476 117.915 66.2054
C103.185 80.9348 94.9091 100.915 94.9091 121.745
C94.9091 142.576 103.185 162.556 117.915 177.285
C132.644 192.015 152.624 200.291 173.455 200.291
z
" style="fill:none;stroke:#000000;"/>
   </g>
  </g>
  <g id="axes_2">
   <g id="patch_4">
    <path d="
M416.945 200.291
C437.776 200.291 457.756 192.015 472.485 177.285
C487.215 162.556 495.491 142.576 495.491 121.745
C495.491 100.915 487.215 80.9348 472.485 66.2054
C457.756 51.476 437.776 43.2 416.945 43.2
C396.115 43.2 376.135 51.476 361.405 66.2054
C346.676 80.9348 338.4 100.915 338.4 121.745
C338.4 142.576 346.676 162.556 361.405 177.285
C376.135 192.015 396.115 200.291 416.945 200.291
z
" style="fill:#ffffff;"/>
   </g>
   <g id="line2d_16">
    <path clip-path="url(#p8adbc5d6f0)" d="
M416.945 121.745
L413.255 120.402
L390.081 195.554
L420.636 123.089
L416.945 121.745" style="fill:none;stroke:#0000ff;stroke-width:2;"/>
   </g>
   <g id="matplotlib.axis_3">
    <g id="xtick_9">
     <g id="line2d_17">
      <path clip-path="url(#p8adbc5d6f0)" d="
M416.945 121.745
L416.945 43.2" style="fill:none;stroke:#aaaaaa;"/>
     </g>
     <g id="text_9">
      <!-- 0° -->
      <g transform="translate(411.094517045 39.7132670455)scale(0.12 -0.12)">
       <use xlink:href="#DejaVuSans-30"/>
       <use x="63.623046875" xlink:href="#DejaVuSans-b0"/>
      </g>
     </g>
    </g>
    <g id="xtick_10">
     <g id="line2d_18">
      <path clip-path="url(#p8adbc5d6f0)" d="
M416.945 121.745
L472.485 66.2054" style="fill:none;stroke:#aaaaaa;"/>
     </g>
     <g id="text_10">
      <!-- 45° -->
      <g transform="translate(468.26885544 65.0192411509)scale(0.12 -0.12)">
       <use xlink:href="#DejaVuSans-34"/>
       <use x="63.623046875" xlink:href="#DejaVuSans-35"/>
       <use x="127.24609375" xlink:href="#DejaVuSans-b0"/>
      </g>
     </g>
    </g>
    <g id="xtick_11">
     <g id="line2d_19">
      <path clip-path="url(#p8adbc5d6f0)" d="
M416.945 121.745
L495.491 121.745" style="fill:none;stroke:#aaaaaa;"/>
     </g>
     <g id="text_11">
      <!-- 90° -->
      <g transform="translate(493.659204545 126.113267045)scale(0.12 -0.12)">
       <use xlink:href="#DejaVuSans-39"/>
       <use x="63.623046875" xlink:href="#DejaVuSans-30"/>
       <use x="127.24609375" xlink:href="#DejaVuSans-b0"/>
      </g>
     </g>
    </g>
    <g id="xtick_12">
     <g id="line2d_20">
      <path clip-path="url(#p8adbc5d6f0)" d="
M416.945 121.745
L472.485 177.285" style="fill:none;stroke:#aaaaaa;"/>
     </g>
     <g id="text_12">
      <!-- 135° -->
      <g transform="translate(464.81698044 187.20729294)scale(0.12 -0.12)">
       <use xlink:href="#DejaVuSans-31"/>
       <use x="63.623046875" xlink:href="#DejaVuSans-33"/>
       <use x="127.24609375" xlink:href="#DejaVuSans-35"/>
       <use x="190.869140625" xlink:href="#DejaVuSans-b0"/>
      </g>
     </g>
    </g>
    <g id="xtick_13">
     <g id="line2d_21">
      <path clip-path="url(#p8adbc5d6f0)" d="
M416.945 121.745
L416.945 200.291" style="fill:none;stroke:#aaaaaa;"/>
     </g>
     <g id="text_13">
      <!-- 180° -->
      <g transform="translate(403.722954545 212.513267045)scale(0.12 -0.12)">
       <use xlink:href="#DejaVuSans-31"/>
       <use x="63.623046875" xlink:href="#DejaVuSans-38"/>
       <use x="127.24609375" xlink:href="#DejaVuSans-30"/>
       <use x="190.869140625" xlink:href="#DejaVuSans-b0"/>
      </g>
     </g>
    </g>
    <g id="xtick_14">
     <g id="line2d_22">
      <path clip-path="url(#p8adbc5d6f0)" d="
M416.945 121.745
L361.405 177.285" style="fill:none;stroke:#aaaaaa;"/>
     </g>
     <g id="text_14">
      <!-- 225° -->
      <g transform="translate(342.409553651 187.20729294)scale(0.12 -0.12)">
       <use xlink:href="#DejaVuSans-32"/>
       <use x="63.623046875" xlink:href="#DejaVuSans-32"/>
       <use x="127.24609375" xlink:href="#DejaVuSans-35"/>
       <use x="190.869140625" xlink:href="#DejaVuSans-b0"/>
      </g>
     </g>
    </g>
    <g id="xtick_15">
     <g id="line2d_23">
      <path clip-path="url(#p8adbc5d6f0)" d="
M416.945 121.745
L338.4 121.745" style="fill:none;stroke:#aaaaaa;"/>
     </g>
     <g id="text_15">
      <!-- 270° -->
      <g transform="translate(317.103579545 126.113267045)scale(0.12 -0.12)">
       <use xlink:href="#DejaVuSans-32"/>
       <use x="63.623046875" xlink:href="#DejaVuSans-37"/>
       <use x="127.24609375" xlink:href="#DejaVuSans-30"/>
       <use x="190.869140625" xlink:href="#DejaVuSans-b0"/>
      </g>
     </g>
    </g>
    <g id="xtick_16">
     <g id="line2d_24">
      <path clip-path="url(#p8adbc5d6f0)" d="
M416.945 121.745
L361.405 66.2054" style="fill:none;stroke:#aaaaaa;"/>
     </g>
     <g id="text_16">
      <!-- 315° -->
      <g transform="translate(342.427366151 65.0192411509)scale(0.12 -0.12)">
       <use xlink:href="#DejaVuSans-33"/>
       <use x="63.623046875" xlink:href="#DejaVuSans-31"/>
       <use x="127.24609375" xlink:href="#DejaVuSans-35"/>
       <use x="190.869140625" xlink:href="#DejaVuSans-b0"/>
      </g>
     </g>
    </g>
   </g>
   <g id="matplotlib.axis_4">
    <g id="ytick_6">
     <g id="line2d_25">
      <path clip-path="url(#p8adbc5d6f0)" d="
M416.945 106.036
L418.588 106.122
L420.212 106.38
L421.8 106.805
L423.335 107.394
L424.8 108.141
L426.179 109.037
L427.457 110.071
L428.62 111.234
L429.654 112.512
L430.55 113.891
L431.296 115.356
L431.886 116.891
L432.311 118.479
L432.568 120.103
L432.655 121.745
L432.568 123.388
L432.311 125.012
L431.886 126.6
L431.296 128.135
L430.55 129.6
L429.654 130.979
L428.62 132.257
L427.457 133.42
L426.179 134.454
L424.8 135.35
L423.335 136.096
L421.8 136.686
L420.212 137.111
L418.588 137.368
L416.945 137.455
L415.303 137.368
L413.679 137.111
L412.091 136.686
L410.556 136.096
L409.091 135.35
L407.712 134.454
L406.434 133.42
L405.271 132.257
L404.237 130.979
L403.341 129.6
L402.594 128.135
L402.005 126.6
L401.58 125.012
L401.322 123.388
L401.236 121.745
L401.322 120.103
L401.58 118.479
L402.005 116.891
L402.594 115.356
L403.341 113.891
L404.237 112.512
L405.271 111.234
L406.434 110.071
L407.712 109.037
L409.091 108.141
L410.556 107.394
L412.091 106.805
L413.679 106.38
L415.303 106.122
L416.945 106.036
L416.945 106.036" style="fill:none;stroke:#aaaaaa;"/>
     </g>
    </g>
    <g id="ytick_7">
     <g id="line2d_26">
      <path clip-path="url(#p8adbc5d6f0)" d="
M416.945 90.3273
L418.042 90.3464
L419.137 90.4038
L421.318 90.633
L423.478 91.0138
L425.605 91.5444
L427.691 92.222
L429.724 93.0435
L431.695 94.0048
L433.595 95.1013
L435.413 96.3276
L437.141 97.6777
L438.77 99.1451
L440.294 100.723
L441.703 102.402
L442.992 104.177
L444.154 106.036
L445.184 107.973
L446.076 109.976
L446.826 112.037
L447.43 114.145
L447.886 116.29
L448.192 118.461
L448.344 120.649
L448.344 122.842
L448.192 125.03
L447.886 127.201
L447.43 129.346
L446.826 131.454
L446.076 133.515
L445.184 135.518
L444.154 137.455
L442.992 139.314
L441.703 141.088
L440.294 142.768
L438.77 144.346
L437.141 145.813
L435.413 147.163
L433.595 148.39
L431.695 149.486
L429.724 150.447
L427.691 151.269
L425.605 151.947
L423.478 152.477
L421.318 152.858
L419.137 153.087
L416.945 153.164
L414.754 153.087
L412.573 152.858
L410.413 152.477
L408.285 151.947
L406.2 151.269
L404.167 150.447
L402.196 149.486
L400.296 148.39
L398.478 147.163
L396.75 145.813
L395.121 144.346
L393.597 142.768
L392.188 141.088
L390.899 139.314
L389.737 137.455
L388.707 135.518
L387.815 133.515
L387.065 131.454
L386.461 129.346
L386.005 127.201
L385.699 125.03
L385.546 122.842
L385.546 120.649
L385.699 118.461
L386.005 116.29
L386.461 114.145
L387.065 112.037
L387.815 109.976
L388.707 107.973
L389.737 106.036
L390.899 104.177
L392.188 102.402
L393.597 100.723
L395.121 99.1451
L396.75 97.6777
L398.478 96.3276
L400.296 95.1013
L402.196 94.0048
L404.167 93.0435
L406.2 92.222
L408.285 91.5444
L410.413 91.0138
L412.573 90.633
L414.754 90.4038
L416.945 90.3273
L416.945 90.3273" style="fill:none;stroke:#aaaaaa;"/>
     </g>
    </g>
    <g id="ytick_8">
     <g id="line2d_27">
      <path clip-path="url(#p8adbc5d6f0)" d="
M416.945 74.6182
L418.59 74.6469
L420.233 74.733
L423.504 75.0768
L426.744 75.648
L429.935 76.4438
L433.064 77.4603
L436.114 78.6925
L439.07 80.1345
L441.919 81.7793
L444.646 83.6187
L447.238 85.6439
L449.683 87.8449
L451.968 90.2112
L454.082 92.731
L456.016 95.3922
L457.759 98.1818
L459.303 101.086
L460.641 104.091
L461.766 107.182
L462.673 110.344
L463.357 113.562
L463.815 116.819
L464.044 120.101
L464.044 123.39
L463.815 126.672
L463.357 129.929
L462.673 133.147
L461.766 136.309
L460.641 139.4
L459.303 142.405
L457.759 145.309
L456.016 148.099
L454.082 150.76
L451.968 153.28
L449.683 155.646
L447.238 157.847
L444.646 159.872
L441.919 161.712
L439.07 163.356
L436.114 164.798
L433.064 166.031
L429.935 167.047
L426.744 167.843
L423.504 168.414
L420.233 168.758
L416.945 168.873
L413.658 168.758
L410.387 168.414
L407.147 167.843
L403.955 167.047
L400.827 166.031
L397.777 164.798
L394.821 163.356
L391.972 161.712
L389.245 159.872
L386.653 157.847
L384.208 155.646
L381.923 153.28
L379.809 150.76
L377.875 148.099
L376.132 145.309
L374.588 142.405
L373.25 139.4
L372.125 136.309
L371.218 133.147
L370.534 129.929
L370.076 126.672
L369.847 123.39
L369.847 120.101
L370.076 116.819
L370.534 113.562
L371.218 110.344
L372.125 107.182
L373.25 104.091
L374.588 101.086
L376.132 98.1818
L377.875 95.3922
L379.809 92.731
L381.923 90.2112
L384.208 87.8449
L386.653 85.6439
L389.245 83.6187
L391.972 81.7793
L394.821 80.1345
L397.777 78.6925
L400.827 77.4603
L403.955 76.4438
L407.147 75.648
L410.387 75.0768
L413.658 74.733
L416.945 74.6182
L416.945 74.6182" style="fill:none;stroke:#aaaaaa;"/>
     </g>
    </g>
    <g id="ytick_9">
     <g id="line2d_28">
      <path clip-path="url(#p8adbc5d6f0)" d="
M416.945 58.9091
L419.138 58.9474
L421.329 59.0622
L425.691 59.5206
L430.01 60.2822
L434.266 61.3433
L438.437 62.6986
L442.503 64.3416
L446.445 66.2642
L450.244 68.4572
L453.88 70.9098
L457.336 73.61
L460.595 76.5448
L463.642 79.6997
L466.461 83.0595
L469.039 86.6078
L471.363 90.3273
L473.422 94.1998
L475.206 98.2065
L476.706 102.328
L477.915 106.544
L478.827 110.834
L479.438 115.177
L479.744 119.552
L479.744 123.938
L479.438 128.314
L478.827 132.657
L477.915 136.947
L476.706 141.163
L475.206 145.284
L473.422 149.291
L471.363 153.164
L469.039 156.883
L466.461 160.431
L463.642 163.791
L460.595 166.946
L457.336 169.881
L453.88 172.581
L450.244 175.034
L446.445 177.227
L442.503 179.149
L438.437 180.792
L434.266 182.148
L430.01 183.209
L425.691 183.97
L421.329 184.429
L416.945 184.582
L412.562 184.429
L408.2 183.97
L403.881 183.209
L399.625 182.148
L395.454 180.792
L391.388 179.149
L387.446 177.227
L383.647 175.034
L380.011 172.581
L376.555 169.881
L373.296 166.946
L370.249 163.791
L367.43 160.431
L364.852 156.883
L362.528 153.164
L360.469 149.291
L358.685 145.284
L357.185 141.163
L355.976 136.947
L355.064 132.657
L354.453 128.314
L354.147 123.938
L354.147 119.552
L354.453 115.177
L355.064 110.834
L355.976 106.544
L357.185 102.328
L358.685 98.2065
L360.469 94.1998
L362.528 90.3273
L364.852 86.6078
L367.43 83.0595
L370.249 79.6997
L373.296 76.5448
L376.555 73.61
L380.011 70.9098
L383.647 68.4572
L387.446 66.2642
L391.388 64.3416
L395.454 62.6986
L399.625 61.3433
L403.881 60.2822
L408.2 59.5206
L412.562 59.0622
L416.945 58.9091
L416.945 58.9091" style="fill:none;stroke:#aaaaaa;"/>
     </g>
    </g>
    <g id="ytick_10">
     <g id="line2d_29">
      <path clip-path="url(#p8adbc5d6f0)" d="
M416.945 43.2
L419.687 43.2478
L422.425 43.3913
L427.877 43.9644
L433.276 44.9164
L438.596 46.2427
L443.81 47.9369
L448.893 49.9906
L453.82 52.3939
L458.568 55.1351
L463.113 58.2008
L467.433 61.5761
L471.508 65.2446
L475.316 69.1883
L478.84 73.388
L482.063 77.8234
L484.968 82.4727
L487.542 87.3134
L489.772 92.3218
L491.647 97.4736
L493.158 102.744
L494.298 108.106
L495.061 113.535
L495.443 119.004
L495.443 124.487
L495.061 129.956
L494.298 135.385
L493.158 140.747
L491.647 146.017
L489.772 151.169
L487.542 156.178
L484.968 161.018
L482.063 165.668
L478.84 170.103
L475.316 174.303
L471.508 178.246
L467.433 181.915
L463.113 185.29
L458.568 188.356
L453.82 191.097
L448.893 193.5
L443.81 195.554
L438.596 197.248
L433.276 198.575
L427.877 199.527
L422.425 200.1
L416.945 200.291
L411.466 200.1
L406.014 199.527
L400.615 198.575
L395.295 197.248
L390.081 195.554
L384.998 193.5
L380.071 191.097
L375.323 188.356
L370.778 185.29
L366.457 181.915
L362.383 178.246
L358.575 174.303
L355.051 170.103
L351.828 165.668
L348.923 161.018
L346.349 156.178
L344.119 151.169
L342.244 146.017
L340.733 140.747
L339.593 135.385
L338.83 129.956
L338.448 124.487
L338.448 119.004
L338.83 113.535
L339.593 108.106
L340.733 102.744
L342.244 97.4736
L344.119 92.3218
L346.349 87.3134
L348.923 82.4727
L351.828 77.8234
L355.051 73.388
L358.575 69.1883
L362.383 65.2446
L366.457 61.5761
L370.778 58.2008
L375.323 55.1351
L380.071 52.3939
L384.998 49.9906
L390.081 47.9369
L395.295 46.2427
L400.615 44.9164
L406.014 43.9644
L411.466 43.3913
L416.945 43.2
L416.945 43.2" style="fill:none;stroke:#aaaaaa;"/>
     </g>
    </g>
   </g>
   <g id="patch_5">
    <path d="
M416.945 200.291
C437.776 200.291 457.756 192.015 472.485 177.285
C487.215 162.556 495.491 142.576 495.491 121.745
C495.491 100.915 487.215 80.9348 472.485 66.2054
C457.756 51.476 437.776 43.2 416.945 43.2
C396.115 43.2 376.135 51.476 361.405 66.2054
C346.676 80.9348 338.4 100.915 338.4 121.745
C338.4 142.576 346.676 162.556 361.405 177.285
C376.135 192.015 396.115 200.291 416.945 200.291
z
" style="fill:none;stroke:#000000;"/>
   </g>
  </g>
 </g>
 <defs>
  <clipPath id="p8adbc5d6f0">
   <path d="
M416.945 200.291
C437.776 200.291 457.756 192.015 472.485 177.285
C487.215 162.556 495.491 142.576 495.491 121.745
C495.491 100.915 487.215 80.9348 472.485 66.2054
C457.756 51.476 437.776 43.2 416.945 43.2
C396.115 43.2 376.135 51.476 361.405 66.2054
C346.676 80.9348 338.4 100.915 338.4 121.745
C338.4 142.576 346.676 162.556 361.405 177.285
C376.135 192.015 396.115 200.291 416.945 200.291
z
"/>
  </clipPath>
  <clipPath id="pccad9f2334">
   <path d="
M173.455 200.291
C194.285 200.291 214.265 192.015 228.995 177.285
C243.724 162.556 252 142.576 252 121.745
C252 100.915 243.724 80.9348 228.995 66.2054
C214.265 51.476 194.285 43.2 173.455 43.2
C152.624 43.2 132.644 51.476 117.915 66.2054
C103.185 80.9348 94.9091 100.915 94.9091 121.745
C94.9091 142.576 103.185 162.556 117.915 177.285
C132.644 192.015 152.624 200.291 173.455 200.291
z
"/>
  </clipPath>
 </defs>
</svg>
